<?xml version="1.0"?>
<svg xmlns="http://www.w3.org/2000/svg" xmlns:xlink="http://www.w3.org/1999/xlink" xmlns:svgjs="http://svgjs.com/svgjs" version="1.1" width="512" height="512" x="0" y="0" viewBox="0 0 48 48" style="enable-background:new 0 0 512 512" xml:space="preserve" class=""><circle r="24" cx="24" cy="24" fill="#ffffff" shape="circle"/><g transform="matrix(0.5499999999999999,0,0,0.5499999999999999,10.7999945551157,10.800204706192018)"><path xmlns="http://www.w3.org/2000/svg" id="XMLID_1459_" d="m34.542 36.229 12.934-11.085c.699-.6.699-1.682 0-2.282l-12.934-11.091c-1.286-1.101-3.128.439-2.275 1.898l3.549 6.084-33.56-3.772c-1.917-.216-3.017 2.108-1.638 3.456l4.673 4.563-4.674 4.569c-1.379 1.342-.278 3.666 1.632 3.45l33.566-3.772-3.549 6.084c-.853 1.466.99 2.999 2.276 1.898z" fill="#61caf7" data-original="#ffcc66" class=""/></g></svg>
