<?xml version="1.0"?>
<svg xmlns="http://www.w3.org/2000/svg" xmlns:xlink="http://www.w3.org/1999/xlink" xmlns:svgjs="http://svgjs.com/svgjs" version="1.1" width="512" height="512" x="0" y="0" viewBox="0 0 512 512" style="enable-background:new 0 0 512 512" xml:space="preserve"><g><g xmlns="http://www.w3.org/2000/svg"><path d="m76 311h189.999c8.284 0 15-6.716 15-15v-140c0-8.284-6.716-15-15-15h-189.999c-8.284 0-15 6.716-15 15v140c0 8.284 6.715 15 15 15zm36.213-30 23.787-23.787 23.786 23.787zm89.999 0-14.979-14.979 18.766-25.021 30 40zm-111.212-110h159.999v80l-33-44c-2.833-3.777-7.278-6-12-6s-9.167 2.223-12 6l-28.194 37.593-19.199-19.199c-5.857-5.858-15.355-5.858-21.213 0l-34.393 34.393z" fill="#ffffff" data-original="#000000"/><path d="m489.493 76.6c-19.459-11.235-43.818-6.282-57.495 10.677v-32.277c0-30.327-24.673-55-55-55h-321.998c-30.327 0-55 24.673-55 55v402c0 30.327 24.673 55 55 55h321.998c30.327 0 55-24.673 55-55v-190.817l73.966-128.113c12.426-21.523 5.052-49.044-16.471-61.47zm-157.495-46.6h45c13.785 0 25 11.215 25 25v25h-70zm-301.998 25c0-13.785 11.215-25 25-25h246.999v50h-271.999zm371.998 402c0 13.807-11.193 25-25 25h-321.998c-13.807 0-25-11.193-25-25v-347h371.998v28.146l-113.975 197.411c-.776 1.344-1.339 2.8-1.668 4.316l-2.416 11.127h-207.516c-8.077 0-15.027 6.207-15.407 14.275-.405 8.614 6.459 15.725 14.984 15.725h201.423l-8.688 40h-192.312c-8.077 0-15.027 6.207-15.406 14.275-.406 8.614 6.458 15.725 14.983 15.725h205.994c3.667 0 7.208-1.344 9.952-3.777l70.981-62.943c1.206-1.07 2.232-2.327 3.038-3.723l36.034-62.413v138.856zm-90.688-90.677 16.141 9.319-22.498 19.951zm36.173-13.756-25.98-15 80-138.564 25.98 15zm95-164.545-25.98-15 15-25.981 25.98 15zm37.5-64.952-7.5 12.991-25.98-15 7.5-12.991c4.142-7.174 13.316-9.632 20.49-5.49 7.174 4.142 9.632 13.316 5.49 20.49z" fill="#ffffff" data-original="#000000"/></g></g></svg>
