<?xml version="1.0"?>
<svg xmlns="http://www.w3.org/2000/svg" xmlns:xlink="http://www.w3.org/1999/xlink" xmlns:svgjs="http://svgjs.com/svgjs" version="1.1" width="512" height="512" x="0" y="0" viewBox="0 0 512.003 512.003" style="enable-background:new 0 0 512 512" xml:space="preserve" class=""><g><g xmlns="http://www.w3.org/2000/svg"><path d="m416.903 238.478c38.4 38.4 38.4 100.66 0 139.06-23.41 23.41-55.69 32.54-86.03 27.41-15.38-2.6-30.27-8.87-43.25-18.81-2.21 2.6-4.54 5.13-7 7.58-50.05 50.04-131.2 50.04-181.25 0-29.9-29.89-41.94-70.89-36.12-109.72-10.47-6.33-17.47-17.82-17.47-30.95 0-13.66 7.58-25.54 18.75-31.69-1.42-25.54 7.62-51.56 27.14-71.07 6.14-6.14 12.91-11.23 20.11-15.3-7.55-7.08-12.27-17.14-12.27-28.31 0-21.42 17.37-38.79 38.8-38.79 5.02 0 9.82.96 14.22 2.69 3.95-15.86 12.12-30.89 24.53-43.3 36.38-36.37 95.37-36.37 131.75 0 1.73 1.73 3.38 3.51 4.95 5.34 7.09-2.51 14.38-4.3 21.75-5.37 34.45-5 70.74 5.75 97.25 32.25 44.61 44.6 44.61 116.91 0 161.5-5.73 5.73-11.92 10.73-18.45 14.99.87.81 1.73 1.639 2.59 2.49z" fill="#61caf7" data-original="#ff3e7a" class=""/><path d="m432.763 220.998c-5.73 5.73-11.92 10.73-18.45 14.99.87.81 1.73 1.64 2.59 2.49 38.4 38.4 38.4 100.66 0 139.06-23.41 23.41-55.69 32.54-86.03 27.41 19.42-3.29 38.04-12.43 53.03-27.41 38.4-38.4 38.4-100.66 0-139.06-.86-.85-1.72-1.68-2.59-2.49 6.53-4.26 12.72-9.26 18.45-14.99 44.61-44.59 44.61-116.9 0-161.5-18.1-18.09-40.74-28.84-64.25-32.25 34.45-5 70.74 5.75 97.25 32.25 44.61 44.6 44.61 116.909 0 161.5z" fill="#444562" data-original="#b2006e" class=""/><g><path d="m135.752 474.503c0 20.68-16.799 37.5-37.453 37.5-4.375 0-8.579-.75-12.484-2.14-14.532-5.16-24.969-19.06-24.969-35.36s10.437-30.2 24.969-35.36c3.905-1.39 8.11-2.14 12.484-2.14 20.654 0 37.453 16.821 37.453 37.5z" fill="#61caf7" data-original="#ff3e7a" class=""/><path d="m135.752 474.503c0 20.68-16.799 37.5-37.453 37.5-4.375 0-8.579-.75-12.484-2.14 14.532-5.16 24.969-19.06 24.969-35.36s-10.437-30.2-24.969-35.36c3.905-1.39 8.11-2.14 12.484-2.14 20.654 0 37.453 16.821 37.453 37.5z" fill="#444562" data-original="#b2006e" class=""/></g><g fill="#fff"><path d="m217.298 203.603c4.09-.653 6.876-4.499 6.223-8.59-3.803-23.811 3.479-41.084 19.978-47.389 15.462-5.907 34.663-.419 42.804 12.236 10.255 15.942 1.58 39.439-23.802 64.467-23.251 22.928-17.495 47.355-11.203 57.069 1.441 2.225 3.87 3.445 6.343 3.445 1.392 0 2.797-.387 4.049-1.197 3.476-2.252 4.488-6.866 2.236-10.343-1.154-1.862-10.701-18.76 9.105-38.291 43.876-43.265 32.719-72.643 25.886-83.265-11.976-18.617-38.671-26.582-60.774-18.133-23.381 8.936-34.385 32.774-29.436 63.767.655 4.091 4.494 6.872 8.591 6.224z" fill="#ffffff" data-original="#ffffff" class=""/><circle cx="257.498" cy="310.057" r="7.5" fill="#ffffff" data-original="#ffffff" class=""/></g></g></g></svg>
