<?xml version="1.0"?>
<svg xmlns="http://www.w3.org/2000/svg" xmlns:xlink="http://www.w3.org/1999/xlink" xmlns:svgjs="http://svgjs.com/svgjs" version="1.1" width="512" height="512" x="0" y="0" viewBox="0 0 511.998 511.998" style="enable-background:new 0 0 512 512" xml:space="preserve"><g>
<g xmlns="http://www.w3.org/2000/svg">
	<g>
		<path d="M495.773,411.069v-17.36c0-37.523-26.993-69.759-63.483-76.746c-12.112-29.267-32.206-54.29-58.321-72.569    c-86.455-60.515-206.832-25.497-247.853,71.254c-24.078,1.007-47.245,9.74-66.125,24.921c-2.751-0.875-5.678-1.35-8.716-1.35h-6    c-25.772,0-38.45,31.278-20.301,49.291c-2.672,6.955-4.644,14.143-5.889,21.478C8.039,413.439,0,423.764,0,435.932    c0,14.984,12.19,27.175,27.175,27.175h57.073c21.562,39.717,78.443,39.705,99.998,0h88.732c4.143,0,7.5-3.357,7.5-7.5    s-3.357-7.5-7.5-7.5h-83.159c1.776-8.223,1.624-16.742-0.063-24.348h144.877c-1.761,7.94-1.748,16.545-0.063,24.348h-26.591    c-4.143,0-7.5,3.357-7.5,7.5s3.357,7.5,7.5,7.5h32.164c21.562,39.717,78.443,39.705,99.998,0h44.683    c14.984,0,27.175-12.19,27.175-27.175C512,424.841,505.319,415.289,495.773,411.069z M45.274,354.219h6    c7.572,0,13.834,6.233,13.834,13.834c0,7.628-6.205,13.835-13.834,13.835c-6.237-0.024-6.487,0.096-8.291-0.206    c-6.805-1.182-11.545-6.983-11.545-13.629C31.44,360.425,37.646,354.219,45.274,354.219z M78.674,448.106H27.175    c-6.712,0-12.174-5.461-12.174-12.174c0-6.712,5.461-12.174,12.174-12.174h51.562C76.91,431.994,77.049,440.601,78.674,448.106z     M134.246,477.92c-24.632,0-44.14-21.32-41.633-46.126c4.382-42.971,63.236-51.351,80.087-12.22    C184.653,447.384,163.955,477.92,134.246,477.92z M390.144,477.92c-29.852,0-50.353-30.643-38.455-58.344    c14.699-34.136,63.414-33.644,77.295,0.94C440.057,448.072,419.561,477.92,390.144,477.92z M440.001,408.758    c-21.614-39.442-78.365-38.967-99.717,0H184.105v-0.001c-21.508-39.248-78.268-39.143-99.717,0H34.567    c0.909-4.326,2.114-8.587,3.606-12.756c5.097,1.295,8.676,0.76,13.101,0.887c16.455,0,29.884-13.918,28.763-30.773    c-0.714-10.588-6.674-16.357-6.845-16.769c27.543-20.032,54.496-18.232,58.011-18.796c3.094,0,5.869-1.899,6.99-4.782    c35.408-91.075,147.189-125.071,227.173-69.085c24.85,17.393,43.705,41.491,54.527,69.689c0.984,2.564,3.292,4.386,6.015,4.747    c31.277,4.153,54.863,31.062,54.863,62.59v15.049H440.001z M484.825,448.106h-39.108c1.649-7.617,1.755-16.154-0.063-24.347    h39.171c6.712,0,12.174,5.461,12.174,12.174C496.999,442.645,491.538,448.106,484.825,448.106z" fill="#61a7f7" data-original="#000000"/>
	</g>
</g>
<g xmlns="http://www.w3.org/2000/svg">
	<g>
		<path d="M390.144,409.664c-14.562,0-26.408,11.847-26.408,26.407c0,14.562,11.847,26.408,26.408,26.408    c14.561,0,26.407-11.847,26.407-26.408C416.55,421.51,404.705,409.664,390.144,409.664z M390.144,447.478    c-6.289,0-11.407-5.117-11.407-11.407s5.117-11.406,11.407-11.406s11.406,5.116,11.406,11.406S396.433,447.478,390.144,447.478z" fill="#61a7f7" data-original="#000000"/>
	</g>
</g>
<g xmlns="http://www.w3.org/2000/svg">
	<g>
		<path d="M134.246,409.664c-14.561,0-26.407,11.847-26.407,26.407c0,14.562,11.847,26.408,26.407,26.408    s26.407-11.847,26.407-26.408C160.654,421.51,148.807,409.664,134.246,409.664z M134.246,447.478    c-6.289,0-11.406-5.117-11.406-11.407s5.116-11.406,11.406-11.406c6.289,0,11.406,5.116,11.406,11.406    S140.536,447.478,134.246,447.478z" fill="#61a7f7" data-original="#000000"/>
	</g>
</g>
<g xmlns="http://www.w3.org/2000/svg">
	<g>
		<path d="M290.48,352.068h-24.794c-4.143,0-7.5,3.357-7.5,7.5s3.357,7.5,7.5,7.5h24.794c4.143,0,7.5-3.357,7.5-7.5    S294.622,352.068,290.48,352.068z" fill="#61a7f7" data-original="#000000"/>
	</g>
</g>
<g xmlns="http://www.w3.org/2000/svg">
	<g>
		<path d="M442.605,169.565c-2.755-34.475-44.507-49.422-68.636-25.43c-15.81,15.719-15.883,41.231-0.164,57.04    c7.03,7.071,16.408,11.248,26.272,11.819c17.252,24.767,56.173,12.239,56.262-17.645    C456.37,184.526,450.867,175.061,442.605,169.565z M411.099,202.224c-1.328-2.73-4.168-4.385-7.187-4.206    c-7.249,0.436-14.355-2.275-19.47-7.418c-15.675-15.766-4.784-43.194,18.037-43.194c14.135,0.041,25.791,11.73,25.234,26.312    c-0.116,3.028,1.603,5.829,4.355,7.098c5.894,2.715,9.286,8.44,9.27,14.492C441.287,212.098,418.471,217.374,411.099,202.224z" fill="#61a7f7" data-original="#000000"/>
	</g>
</g>
<g xmlns="http://www.w3.org/2000/svg">
	<g>
		<path d="M468.15,227.736c-24.777-3.676-41.346,24.573-26.598,44.433c4.462,6.01,10.999,9.924,18.405,11.019    c1.383,0.204,2.755,0.303,4.112,0.303c13.656,0,25.654-10.028,27.709-23.932c0.001,0,0.001-0.001,0.001-0.001    C494.038,244.27,483.437,229.995,468.15,227.736z M476.941,257.365c-1.05,7.105-7.697,12.031-14.79,10.983    c-7.105-1.051-12.033-7.685-10.983-14.79c1.053-7.117,7.696-12.031,14.79-10.983C473.063,243.626,477.99,250.261,476.941,257.365z    " fill="#61a7f7" data-original="#000000"/>
	</g>
</g>
<g xmlns="http://www.w3.org/2000/svg">
	<g>
		<path d="M363.545,50.43c-5.411-27.778-38.074-40.683-60.961-23.69c-10.946,8.13-16.376,20.927-15.517,33.615    c-39.801,21.232-29.566,81.31,15.229,87.928c2.335,0.345,4.656,0.513,6.957,0.513c16.475-0.002,31.697-8.629,40.152-22.728    c22.345,6.324,45.321-8.352,48.746-31.527C401.38,72.685,385.559,52.488,363.545,50.43z M383.314,92.348    c-2.358,15.953-19.728,24.958-34.14,17.587c-3.913-1.999-8.719-0.221-10.371,3.87c-5.54,13.728-19.647,21.808-34.314,19.637    c-17.482-2.583-29.545-18.823-26.96-36.308c1.697-11.491,9.52-21.175,20.412-25.271c3.526-1.326,5.521-5.062,4.663-8.73    c-2.085-8.911,1.125-18.561,8.924-24.352c15.594-11.581,37.842-0.258,37.718,19.088c-0.014,2.13,0.879,4.165,2.455,5.598    c3.528,3.208,5.845,1.182,11.688,2.047C376.281,67.422,385.217,79.458,383.314,92.348z" fill="#61a7f7" data-original="#000000"/>
	</g>
</g>
<g xmlns="http://www.w3.org/2000/svg">
	<g>
		<path d="M392.416,311.255c-50.461-88.841-177.309-87.156-226.907-0.205c-6.336,11.108,1.611,24.859,14.347,24.859h22.62    c4.143,0,7.5-3.357,7.5-7.5s-3.357-7.5-7.5-7.5h-22.62c-1.244,0-1.942-1.329-1.316-2.427    c23.317-40.88,69.84-64.253,117.545-57.036v59.464h-58.607c-4.143,0-7.5,3.357-7.5,7.5s3.357,7.5,7.5,7.5h140.477    C390.609,335.909,398.672,322.266,392.416,311.255z M379.346,320.098c-0.937,1.61,1.846,0.357-68.261,0.81V264.75    c26.995,7.867,51.125,25.619,66.513,50.908C379.421,318.652,379.893,319.158,379.346,320.098z" fill="#61a7f7" data-original="#000000"/>
	</g>
</g>
<g xmlns="http://www.w3.org/2000/svg">
</g>
<g xmlns="http://www.w3.org/2000/svg">
</g>
<g xmlns="http://www.w3.org/2000/svg">
</g>
<g xmlns="http://www.w3.org/2000/svg">
</g>
<g xmlns="http://www.w3.org/2000/svg">
</g>
<g xmlns="http://www.w3.org/2000/svg">
</g>
<g xmlns="http://www.w3.org/2000/svg">
</g>
<g xmlns="http://www.w3.org/2000/svg">
</g>
<g xmlns="http://www.w3.org/2000/svg">
</g>
<g xmlns="http://www.w3.org/2000/svg">
</g>
<g xmlns="http://www.w3.org/2000/svg">
</g>
<g xmlns="http://www.w3.org/2000/svg">
</g>
<g xmlns="http://www.w3.org/2000/svg">
</g>
<g xmlns="http://www.w3.org/2000/svg">
</g>
<g xmlns="http://www.w3.org/2000/svg">
</g>
</g></svg>
